<svg width="393" height="338" viewBox="0 0 393 338" fill="none" xmlns="http://www.w3.org/2000/svg">
<g filter="url(#filter0_d_402_2237)">
<path d="M233.885 40.6099C232.785 40.9799 231.895 40.4699 231.025 39.9099C226.625 38.6999 222.365 37.0299 217.865 36.0999C208.525 34.1799 199.175 34.4799 189.785 35.4599C189.115 35.4999 188.455 35.5399 187.785 35.5799C186.965 36.6699 185.685 36.6899 184.525 37.0599C180.905 38.1999 177.245 39.2499 174.055 41.4199C173.755 42.0299 173.215 42.1999 172.595 42.2299C172.315 42.3999 172.035 42.5799 171.755 42.7499C171.915 44.3899 170.635 45.1599 169.705 46.1299C167.885 48.0199 165.885 49.7499 164.215 51.7599C161.785 54.6999 162.455 56.6599 166.105 57.6699C168.505 58.3299 170.925 58.7999 173.465 58.7299C177.705 58.6099 181.955 58.6599 186.205 58.7699C187.255 58.7999 188.745 59.0299 188.635 60.4799C188.545 61.6599 187.225 61.5999 186.215 61.6999C180.135 62.3199 174.045 62.3499 167.945 62.5199C161.315 62.7099 154.845 64.0399 149.165 67.7899C146.725 69.3999 144.505 71.3999 144.835 74.7199C145.165 78.0199 146.775 80.4899 149.945 81.9799C151.215 82.5799 153.905 82.2399 153.385 84.5399C152.875 86.7999 150.495 86.4499 148.625 86.4299C147.625 86.4299 146.625 86.4799 145.625 86.4299C139.795 86.0999 135.695 88.8899 132.585 93.5699C129.475 98.2499 128.825 103.4 128.985 108.9C129.255 118.2 137.035 128.5 146.014 130.75C151.545 132.13 157.144 133.25 162.684 134.58C163.834 134.86 165.465 135.17 165.445 136.67C165.415 138.37 163.675 138.58 162.385 138.86C161.305 139.09 160.145 138.93 159.025 138.97C151.435 139.24 143.855 138.57 136.255 139.66C125.575 141.19 117.665 151.11 120.255 161.35C123.515 174.19 131.205 183.75 143.585 189.23C148.825 191.55 153.945 194.18 159.055 196.78C160.455 197.5 162.155 198.5 161.825 200.38C161.495 202.33 159.645 202.98 157.915 203.39C155.265 204.02 152.535 204.37 149.925 205.14C146.935 206.02 145.895 208.24 146.485 211.27C148.145 219.91 153.115 226.57 159.735 231.85C172.795 242.27 188.295 245.89 204.585 246.97C206.015 247.06 208.005 246.5 208.285 248.52C208.605 250.78 206.695 251.19 204.875 251.59C200.875 252.46 196.905 253.5 192.925 254.44C191.335 254.82 189.615 255.06 189.145 256.96C188.655 258.92 190.255 259.92 191.435 260.94C195.204 264.19 199.835 265.75 204.485 267.17C211.525 269.31 218.815 268.51 226.005 268.86C226.985 268.73 227.975 268.62 228.955 268.46C237.195 267.07 244.985 264.2 252.715 261.16C254.605 259.99 256.535 258.9 258.365 257.65C264.385 253.54 270.524 249.57 274.584 243.26C268.624 243.88 263.125 246.4 257.245 247.38C251.985 248.26 246.765 249.46 241.375 249.21C240.635 249.18 239.785 249.27 239.495 248.36C239.165 247.31 239.855 246.69 240.665 246.3C241.445 245.94 242.285 245.61 243.125 245.5C249.035 244.72 254.805 243.3 260.605 241.97C267.015 240.5 273.135 237.87 279.735 237.19C280.005 236.96 280.275 236.73 280.545 236.5C290.525 230.95 297.744 223.1 300.994 211.96C303.044 204.94 303.174 197.8 302.165 190.6C300.475 187.97 301.355 186.16 303.355 183.84C312.895 172.75 315.945 160.08 311.705 145.85C310.915 143.22 309.085 141 308.814 138.19C306.654 136.3 305.085 133.97 303.725 131.47C302.415 130.57 301.094 129.68 301.524 127.75C302.484 123.65 304.285 119.77 304.695 115.53C304.645 112.61 304.594 109.69 304.554 106.78C303.804 102.73 301.604 99.2799 299.904 95.6199C298.834 94.7899 297.865 93.8899 297.605 92.4699C296.615 91.5299 295.025 91.1899 294.725 89.5699C293.674 89.4599 292.975 88.8399 292.385 88.0199L281.214 81.2199C274.814 86.0299 267.514 87.9399 259.624 87.9599C258.785 87.9599 257.734 88.1599 257.445 87.0299C257.185 86.0099 257.835 85.2599 258.764 85.1199C265.804 84.0299 272.145 80.6899 278.985 78.9399C278.035 74.8199 275.725 71.4899 272.945 68.4299C269.695 67.0999 267.764 63.9699 264.654 62.3999C261.454 60.7899 258.285 59.1399 254.904 57.9499C254.694 57.9199 254.475 57.8999 254.264 57.8999C253.054 59.5599 251.005 59.6299 249.335 60.3499C241.555 63.6799 233.325 63.5199 225.105 63.0399C224.095 62.9799 222.165 62.8899 222.265 61.2599C222.354 59.7199 224.015 60.2499 225.035 60.2399C234.275 60.1299 243.325 58.9099 252.035 55.6899C251.165 52.9099 248.685 51.5699 246.785 49.6999C242.965 45.9499 237.735 44.2599 233.855 40.6299L233.885 40.6099ZM203.335 215.37C194.425 207.9 191.345 195.64 195.425 183.83C199.455 172.17 210.085 164.09 221.995 163.64C222.725 163.02 223.615 163.1 224.485 163.06C239.565 162.47 254.505 175.33 253.564 192.41C252.865 205.23 246.785 214.58 235.155 219.63C223.955 224.5 213.025 223.62 203.325 215.36L203.335 215.37ZM241.045 138.68C237.555 138.68 234.065 138.79 230.595 138.6C229.725 138.55 228.065 138.47 228.235 136.81C228.385 135.37 229.605 135.18 230.785 135.21C240.125 135.39 249.395 134.35 258.695 133.74C268.764 133.07 278.664 131.65 288.334 128.71C290.954 127.91 293.564 127.11 296.195 126.36C297.195 126.08 298.284 126.11 298.834 127.16C299.474 128.38 298.435 129.11 297.635 129.53C295.885 130.46 294.075 131.39 292.175 131.91C275.455 136.53 258.335 138.3 241.055 138.68H241.045ZM279.765 102.24C279.765 101.57 279.775 101.07 279.765 100.57C279.705 98.1599 280.285 96.0999 282.765 95.1099C285.285 94.1099 287.195 94.8899 289.094 96.7899C292.225 99.9199 292.805 103.71 292.505 107.79C292.174 112.37 288.254 114.3 284.524 111.61C281.344 109.31 279.404 106.21 279.755 102.23L279.765 102.24ZM299.255 156.95C298.215 161.03 298.174 165.27 294.994 168.41C293.534 169.85 291.874 170.05 290.195 169.47C288.624 168.93 287.914 167.29 288.124 165.82C288.865 160.69 289.675 155.56 291.235 150.59C291.745 148.97 292.714 147.68 294.774 147.96C296.734 148.23 298.085 149.47 298.385 151.24C298.715 153.18 298.745 155.18 299.265 156.94L299.255 156.95ZM169.625 87.2999C184.335 88.4499 198.525 88.9199 212.735 88.6999C213.855 88.6799 214.985 88.6399 216.105 88.7199C217.125 88.7999 218.705 88.2299 218.815 89.8599C218.925 91.5499 217.435 91.6499 216.135 91.6899C204.195 92.0799 192.265 93.1799 180.335 91.6699C176.775 91.2199 173.205 90.6999 169.675 90.0599C168.685 89.8799 167.175 89.5799 167.585 88.0199C167.925 86.7399 169.275 87.3699 169.635 87.2899L169.625 87.2999ZM269.434 199.04C267.374 198.77 265.124 199.53 264.994 197.19C264.864 194.76 267.145 195.44 268.635 195.15C271.195 194.67 273.755 194.18 276.265 193.51C282.525 191.85 288.625 189.68 294.675 187.36C295.895 186.89 297.305 186.52 298.005 187.89C298.794 189.43 297.305 190.13 296.255 190.66C287.605 194.98 278.295 197.16 269.425 199.04H269.434ZM280.524 125.52C280.624 127.47 280.464 129.3 277.714 129.19C275.514 129.1 273.044 126.24 273.054 123.7C273.054 121.44 274.234 120.06 276.494 120.26C279.504 120.53 280.704 122.53 280.535 125.52H280.524ZM176.395 198.99C178.595 199.95 181.205 199.64 183.775 199.74C184.845 199.78 185.775 200.2 185.875 201.4C185.985 202.82 184.995 203.26 183.775 203.44C181.025 203.85 178.415 202.81 175.725 202.7C174.485 202.65 173.404 202.2 173.434 200.83C173.474 199.21 174.765 198.97 176.395 198.99ZM194.005 135.31C194.005 135.31 194.005 135.26 194.005 135.24C194.875 135.24 195.765 135.13 196.615 135.27C197.815 135.46 199.295 135.6 199.365 137.21C199.425 138.64 198.005 138.68 197.035 139.18C194.735 140.36 192.645 139.15 190.505 138.8C189.605 138.65 189.035 137.87 189.195 136.84C189.315 136 189.905 135.45 190.665 135.36C191.765 135.23 192.895 135.33 194.015 135.33L194.005 135.31Z" fill="#FBDB6C"/>
<path d="M97.0542 211.58C92.0742 215.03 86.1542 215.59 80.4742 216.87C79.8342 217.01 78.9642 216.68 78.3642 216.32C67.6442 209.85 58.7842 214.38 50.3642 221.1C46.8142 223.93 44.3942 227.81 41.6542 231.36C35.0942 239.86 28.6342 248.43 22.1642 256.99C20.3342 259.41 18.4442 261.95 20.0442 265.18C21.6842 268.49 24.8942 269.31 28.2242 269.51C33.0142 269.8 37.6842 269.02 42.1642 267.28C56.8142 261.6 69.1242 252.76 78.5242 240.07C82.2942 234.98 83.6642 229.16 82.3042 223.05C81.6942 220.3 82.7342 219.77 84.7842 219.34C85.8842 219.11 86.9742 218.84 88.0642 218.58C90.0742 218.12 90.6742 218.66 90.1142 220.83C86.4442 234.89 90.9842 247.06 99.8642 257.58C107.174 266.25 115.564 274 122.274 283.22C123.554 284.98 125.184 286.47 127.634 285.91C130.114 285.34 131.204 283.35 131.934 281.15C134.314 273.97 133.694 266.6 133.214 259.25C132.964 255.4 132.464 251.57 132.084 247.73C130.934 243.44 129.994 239.07 128.604 234.86C124.994 223.93 120.034 214.03 107.994 210.04C105.874 209.34 107.204 208.08 107.734 207.12C111.264 200.79 115.374 194.88 120.854 190.04C120.284 188.72 119.274 187.7 118.054 187.12C114.884 185.6 112.504 183.23 110.904 180.22C109.214 177.05 107.954 173.64 106.514 170.34C101.014 166.96 95.3842 163.89 89.1242 162.06C85.3542 160.96 81.3842 160.4 77.8942 158.41C75.9642 158.87 74.0542 159.4 72.1142 159.77C66.9642 160.74 62.6642 158.22 60.6842 153.15C58.8542 152.88 57.0242 152.47 55.1842 152.37C52.1742 152.2 50.3142 154 51.2842 156.73C57.2642 173.56 64.2842 189.66 82.9142 196.41C85.1242 197.21 87.4642 197.64 89.7442 198.25C96.2642 199.8 102.704 198.09 109.954 197.24C106.574 203.63 103.274 208.87 97.0742 211.56L97.0542 211.58ZM66.6742 241.33C66.6742 243.2 66.7942 245.08 66.6242 246.93C66.5342 247.83 66.1742 249.13 64.9042 249.01C63.4842 248.88 63.8742 247.55 63.8242 246.62C63.5542 242.15 63.3142 237.69 63.0742 233.22C63.0242 232.2 63.0142 231.1 61.8342 230.76C60.7242 230.44 60.4342 231.52 59.9342 232.2C58.4542 234.2 56.9042 236.15 55.4742 238.18C49.0442 247.28 42.0642 255.84 32.3342 261.69C31.2442 262.35 30.0342 263.38 29.0342 262.17C27.9142 260.83 29.4742 259.98 30.3042 259.15C30.8242 258.63 31.5042 258.27 32.1342 257.87C37.3742 254.6 41.5942 250.18 45.8242 245.77C46.3842 245.18 47.4342 244.64 46.8642 243.63C46.4542 242.91 45.5142 243.17 44.7942 243.25C42.7242 243.47 39.3442 245.34 39.0042 242.95C38.6742 240.65 42.7942 241.17 44.8642 240.25C45.0742 240.15 45.3642 240.15 45.6042 240.2C49.1442 240.91 50.9042 238.8 52.7942 236.22C56.3842 231.32 59.8742 226.25 64.9942 222.71C65.8442 222.12 66.7242 220.84 67.8242 222.21C68.7242 223.33 67.6542 224.08 66.9242 224.67C64.7742 226.44 64.5442 228.57 65.4142 231.04C66.5842 234.36 67.1542 237.79 66.6842 241.32L66.6742 241.33ZM124.634 266.82C124.374 268.17 125.114 269.72 123.574 269.98C122.154 270.23 121.944 268.72 121.594 267.7C119.574 261.68 117.534 255.68 115.594 249.63C113.774 243.92 111.444 238.43 108.644 233.13C108.314 232.5 108.154 231.56 107.284 231.52C106.154 231.47 106.004 232.5 105.754 233.32C105.504 234.15 105.234 234.98 105.034 235.83C104.164 239.58 103.484 243.36 103.444 247.23C103.434 248.29 103.114 249.77 101.724 249.72C100.024 249.66 100.554 248.06 100.584 247.07C100.694 242.21 101.204 237.36 102.954 232.82C104.274 229.41 105.114 226.22 103.164 222.82C102.784 222.15 102.654 221.33 103.544 220.9C104.354 220.52 104.994 220.97 105.444 221.63C105.794 222.14 106.034 222.72 106.364 223.25C111.524 231.61 114.644 241.44 123.894 246.87C125.284 247.68 128.554 249.47 126.614 251.45C124.944 253.15 123.754 249.67 122.204 248.72C121.214 248.11 120.514 246.33 119.174 247.31C118.144 248.07 119.244 249.41 119.604 250.36C121.684 255.83 123.134 261.47 124.634 266.8V266.82ZM85.1742 189.97C84.1142 189.85 82.8242 190.22 82.7142 188.77C82.6242 187.53 83.5942 187.14 84.6742 186.95C87.1542 186.52 89.4242 185.49 91.6242 184.3C92.5942 183.77 93.8442 183.37 93.6642 181.96C93.5142 180.78 92.3442 180.57 91.4242 180.27C88.1142 179.21 84.7942 178.13 81.4542 177.17C75.5042 175.46 69.9242 173.09 65.7742 168.27C64.8942 167.25 62.5642 166.29 63.7242 164.93C64.9142 163.53 66.3542 165.64 67.4342 166.4C70.8842 168.85 74.1442 171.58 78.2842 172.85C79.3342 173.17 80.4742 173.95 81.4042 172.92C82.2942 171.94 81.5542 170.8 81.2042 169.76C81.0042 169.17 80.6842 168.6 80.5942 168C80.4042 166.58 77.4942 165.1 79.6542 164.05C81.7142 163.05 82.4142 165.86 83.3042 167.4C83.6142 167.93 83.9842 168.56 83.9642 169.13C83.7142 174.66 87.7442 175.93 91.8442 177.12C92.0842 177.19 92.3542 177.15 92.5842 177.23C98.7042 179.43 104.724 181.81 109.184 186.88C109.664 187.42 110.434 187.99 109.834 188.77C109.324 189.42 108.414 189.34 107.764 188.95C106.064 187.91 104.174 187.02 102.824 185.62C100.044 182.76 97.6542 183.2 94.7942 185.51C91.9842 187.78 88.7942 189.53 85.2042 189.97H85.1742Z" fill="#CAC761"/>
<path d="M106.514 170.36C107.964 173.66 109.224 177.06 110.914 180.24C112.514 183.24 114.894 185.61 118.064 187.14C119.284 187.73 120.284 188.75 120.854 190.06C125.814 191.64 126.964 193.41 127.024 198.23C127.064 201.56 127.304 204.98 128.094 208.2C132.204 224.99 141.534 238.17 155.964 247.72C157.134 248.27 158.314 248.82 159.484 249.37C162.344 250.2 165.554 250.59 167.604 252.87C173.024 258.9 179.444 263.45 186.754 266.84C187.864 267.11 189.144 266.91 189.984 267.95C191.694 267.75 193.284 268.26 194.874 268.76C196.244 269.04 197.624 269.32 198.994 269.59C200.224 269.7 201.464 269.82 202.694 269.92C210.514 270.53 218.324 270.8 226.024 268.82C218.834 268.47 211.544 269.27 204.504 267.13C199.854 265.71 195.224 264.15 191.454 260.9C190.274 259.88 188.684 258.88 189.164 256.92C189.634 255.02 191.354 254.77 192.944 254.4C196.934 253.46 200.894 252.42 204.894 251.55C206.714 251.16 208.624 250.75 208.304 248.48C208.024 246.46 206.024 247.02 204.604 246.93C188.314 245.85 172.814 242.22 159.754 231.81C153.134 226.53 148.164 219.86 146.504 211.23C145.924 208.2 146.954 205.98 149.944 205.1C152.554 204.33 155.274 203.98 157.934 203.35C159.664 202.94 161.514 202.29 161.844 200.34C162.164 198.46 160.474 197.46 159.074 196.74C153.964 194.13 148.854 191.51 143.604 189.19C131.224 183.7 123.534 174.15 120.274 161.31C117.674 151.06 125.594 141.15 136.274 139.62C143.874 138.53 151.454 139.2 159.044 138.93C160.164 138.89 161.324 139.06 162.404 138.82C163.684 138.54 165.434 138.34 165.464 136.63C165.484 135.14 163.854 134.82 162.704 134.54C157.164 133.21 151.564 132.09 146.034 130.71C137.054 128.46 129.274 118.16 129.004 108.86C128.844 103.36 129.494 98.2099 132.604 93.5299C135.714 88.8499 139.814 86.0699 145.644 86.3899C146.644 86.4499 147.644 86.3899 148.644 86.3899C150.514 86.3999 152.904 86.7499 153.404 84.4999C153.924 82.1999 151.234 82.5399 149.964 81.9399C146.794 80.4499 145.184 77.9899 144.854 74.6799C144.524 71.3699 146.744 69.3699 149.184 67.7499C154.854 63.9899 161.334 62.6699 167.964 62.4799C174.064 62.2999 180.154 62.2699 186.234 61.6599C187.244 61.5599 188.554 61.6299 188.654 60.4399C188.764 58.9899 187.274 58.7499 186.224 58.7299C181.984 58.6199 177.734 58.5699 173.484 58.6899C170.944 58.7599 168.524 58.2999 166.124 57.6299C162.474 56.6199 161.794 54.6499 164.234 51.7199C165.904 49.7099 167.904 47.9799 169.724 46.0899C170.654 45.1299 171.934 44.3499 171.774 42.7099C170.594 43.3399 169.334 43.8499 168.264 44.6299C164.304 47.4999 160.394 50.4599 156.474 53.3799C155.564 54.3999 154.594 55.3299 153.164 55.5599C149.634 56.9699 146.004 58.1499 142.714 60.1099C140.564 62.1399 138.874 64.6699 136.204 66.1299C135.944 67.3299 135.714 68.5499 134.484 69.2099C133.414 72.4099 132.344 75.6199 131.274 78.8199C130.694 80.6699 129.394 81.9999 128.054 83.3299C125.574 85.7799 122.874 88.0399 120.824 90.8899C113.584 100.94 113.434 112.04 116.464 123.39C117.384 126.84 116.654 129.25 114.694 131.97C110.374 137.95 106.824 144.37 105.424 151.75C104.464 156.84 105.334 161.91 105.744 166.98C106.004 168.09 106.274 169.2 106.534 170.31L106.514 170.36Z" fill="#FBC350"/>
<path d="M105.724 167.03C105.304 161.96 104.434 156.9 105.404 151.8C106.804 144.42 110.354 138 114.674 132.02C116.644 129.3 117.364 126.89 116.444 123.44C113.414 112.08 113.564 100.99 120.804 90.9399C122.864 88.0799 125.554 85.8299 128.034 83.3799C129.374 82.0499 130.674 80.7299 131.254 78.8699C129.954 77.9499 130.704 76.5899 130.554 75.4299C130.254 73.2099 130.314 70.9199 129.764 68.7799C128.424 63.5399 123.724 61.2499 118.724 63.3099C113.844 65.3099 110.404 69.1299 107.104 73.0499C104.294 76.3899 101.974 80.0799 99.9043 83.9299C96.7743 89.7599 96.7543 89.7499 91.3343 85.6599C85.0743 80.9299 78.7943 76.2199 71.4043 73.3199C70.0143 72.7799 68.5843 72.3499 67.1543 71.9399C60.1543 69.9199 56.3643 71.9399 54.0443 78.8599C54.2843 84.0699 56.3743 88.4699 60.0943 92.0599C63.0443 94.8999 66.1143 97.6099 69.1743 100.34C70.7143 101.71 70.4443 102.35 68.5443 103.04C64.7043 104.43 60.9543 106.06 57.1643 107.59C53.9543 110.32 50.3843 112.64 48.1043 116.38C42.6143 125.42 47.1543 133.99 57.7243 134.57C61.1143 134.76 64.3643 133.8 68.7543 133.38C63.6643 139.59 59.0543 145.26 60.6943 153.18C62.6743 158.25 66.9743 160.77 72.1243 159.8C74.0643 159.43 75.9843 158.9 77.9043 158.44C80.4743 157.21 82.9443 155.81 85.1743 154.01C87.8843 151.81 90.6443 149.68 93.3043 147.42C94.8243 146.13 95.5443 146.38 96.0943 148.28C97.0243 151.51 98.0443 154.71 99.1643 157.87C100.464 161.54 102.044 165.07 105.754 167.03H105.724ZM110.244 116.17C110.224 121.97 105.394 126.94 99.8843 126.85C94.7243 126.76 90.6443 122.35 90.7543 116.96C90.8643 111.56 95.6443 106.82 100.884 106.92C106.174 107.03 110.274 111.07 110.254 116.17H110.244Z" fill="#F37955"/>
<path d="M274.594 243.24C270.534 249.55 264.384 253.52 258.374 257.63C256.544 258.88 254.614 259.97 252.724 261.14C254.544 261.68 256.364 262.21 258.174 262.75C258.294 262.75 258.424 262.73 258.544 262.73C266.554 262.81 266.384 262.79 263.004 269.86C259.804 276.57 256.114 283.29 256.514 291.06C256.824 297.18 259.534 302.27 265.424 304.7C271.054 307.02 276.174 305.38 280.584 301.33C283.544 298.61 286.234 295.66 288.024 292.03C289.784 288.46 291.404 284.81 293.084 281.19C293.534 280.21 293.604 278.73 294.794 278.56C295.914 278.39 296.054 279.89 296.654 280.63C299.644 284.31 302.694 287.94 306.164 291.19C309.084 293.92 312.554 295.52 316.414 296.28C323.114 297.6 328.134 294.47 330.204 287.89C330.854 285.83 331.024 283.74 331.104 281.62C330.824 276.9 328.424 272.86 326.884 268.54C323.984 264.13 321.134 259.7 318.184 255.32C315.334 251.1 315.674 250.14 320.844 248.37C321.864 245.9 324.274 244.84 326.174 243.35C331.904 238.86 337.354 234.18 340.754 227.54C343.014 223.12 341.554 219.63 336.714 218.48C334.664 217.99 332.544 217.83 330.454 217.51C329.904 217.53 329.364 217.55 328.814 217.57C327.364 217.79 325.914 218.07 324.454 218.21C318.764 218.77 313.794 221.75 308.304 223C308.194 223.1 308.074 223.2 307.964 223.31C308.064 223.19 308.154 223.07 308.254 222.95C308.384 221.97 308.494 220.99 308.654 220.02C309.674 213.93 310.964 207.88 310.554 201.63C310.144 195.37 307.024 191.15 302.214 190.6C303.224 197.8 303.094 204.94 301.044 211.96C297.784 223.1 290.564 230.95 280.584 236.5C280.314 236.73 280.044 236.96 279.774 237.19C278.294 238.94 277.404 241.18 275.374 242.48C275.104 242.74 274.824 243 274.554 243.26H274.604L274.594 243.24ZM303.064 250.77C303.014 256.09 297.834 260.63 291.894 260.55C287.544 260.49 284.224 256.79 284.304 252.08C284.404 246.32 288.894 241.64 294.344 241.6C299.384 241.56 303.104 245.48 303.064 250.77Z" fill="#F37955"/>
<path d="M330.444 217.49C332.534 217.8 334.654 217.97 336.704 218.46C341.544 219.61 343.004 223.1 340.744 227.52C337.344 234.16 331.894 238.84 326.164 243.33C324.264 244.82 321.844 245.88 320.834 248.35C321.814 249.92 322.644 251.61 323.794 253.05C326.774 256.76 329.634 260.39 327.024 265.57C326.614 266.37 326.904 267.53 326.874 268.52C328.414 272.84 330.814 276.88 331.094 281.6C335.894 285.07 340.304 289.09 345.704 291.7C358.204 297.74 371.104 301.3 385.074 297.98C389.484 296.93 393.474 294.87 397.134 292.19C399.354 290.56 399.614 288.63 397.324 287.02C388.964 281.17 382.364 273.45 375.314 266.24C366.924 257.66 357.744 251.12 344.834 251.99C353.504 249.25 360.914 244.71 367.554 238.73C375.694 231.41 381.744 222.71 385.704 212.54C386.965 209.3 386.694 205.88 385.964 202.58C385.364 199.86 383.214 198.54 380.584 199.12C368.434 201.76 356.054 203.4 344.134 207.12C338.354 208.92 333.614 212.19 330.454 217.49H330.444ZM373.464 278.45C373.014 278.45 372.754 278.41 372.514 278.45C371.134 278.74 369.064 277.59 368.504 279.37C367.924 281.24 370.184 281.45 371.334 282.27C374.124 284.24 377.544 284.82 380.484 286.46C381.144 286.83 381.884 287.24 381.534 288.16C381.174 289.11 380.374 288.81 379.634 288.63C373.884 287.25 368.474 285.23 363.884 281.28C360.114 278.04 356.154 275.01 352.184 272.01C351.374 271.4 350.454 270.09 349.314 270.71C348.204 271.32 348.844 272.76 348.784 273.82C348.724 274.68 348.784 275.58 348.984 276.42C349.754 279.48 351.414 282.15 352.734 284.98C353.204 285.98 353.864 287.25 352.534 287.93C351.264 288.58 350.384 287.41 349.874 286.46C347.804 282.63 345.564 278.91 345.684 274.24C345.844 268.13 345.684 268.13 339.974 266.15C339.504 265.99 339.024 265.85 338.564 265.66C337.564 265.25 335.944 265.07 336.234 263.72C336.604 262 338.254 262.67 339.374 262.95C346.644 264.73 353.124 268.1 358.714 273.08C361.614 275.66 364.665 276.76 368.645 275.8C371.885 275.02 375.324 274.98 378.614 276.07C379.634 276.41 381.124 276.51 380.614 278.12C380.244 279.28 379.094 279.28 378.074 278.86C376.504 278.22 374.864 278.57 373.454 278.46L373.464 278.45ZM360.504 228.92C362.654 228.92 364.154 228.88 365.654 228.94C366.574 228.98 367.924 228.59 368.034 230.03C368.134 231.41 366.684 231.32 365.834 231.61C361.414 233.15 356.994 232.76 352.714 231.13C350.474 230.28 348.314 229.43 345.854 229.7C345.174 229.78 344.174 229.97 343.944 229.03C343.674 227.91 344.754 227.64 345.484 227.24C348.104 225.79 350.644 224.16 353.384 222.99C356.424 221.69 357.434 219.58 357.004 216.48C356.644 213.86 357.454 211.51 359.024 209.47C359.704 208.59 360.434 206.87 361.844 207.76C362.904 208.43 362.054 209.8 361.584 210.82C361.064 211.95 360.404 213.06 360.134 214.25C359.894 215.28 359.554 216.62 360.624 217.38C361.654 218.11 362.424 217 363.264 216.53C367.744 214.01 371.234 210.15 375.534 207.4C376.364 206.87 377.324 205.24 378.324 206.28C379.544 207.55 377.884 208.46 377.094 209.29C371.814 214.83 365.494 219.07 359.194 223.32C357.234 224.64 353.284 225.47 353.994 227.64C354.824 230.18 358.674 228.59 360.534 228.94L360.504 228.92ZM339.604 252.41C329.814 257.48 330.314 257.98 326.694 251.73C330.804 251.95 334.844 252.16 339.604 252.41Z" fill="#CAC761"/>
<path d="M302.194 190.58C307.004 191.12 310.124 195.35 310.534 201.61C310.944 207.86 309.654 213.91 308.634 220C308.474 220.97 308.364 221.95 308.234 222.93L308.294 222.99C313.774 221.74 318.744 218.75 324.434 218.2C325.894 218.06 327.344 217.78 328.794 217.56C328.874 213.51 328.404 209.57 326.284 206.01C324.994 203.86 326.014 203.25 328.034 203.03C333.054 202.48 337.694 200.57 342.294 198.69C357.844 192.32 361.704 176.09 350.894 163.19C344.574 155.65 335.914 152.24 326.974 149.25C325.814 148.86 324.474 148.82 323.224 147.25C325.244 145.38 327.394 143.52 329.404 141.52C332.684 138.24 335.424 134.54 337.744 130.5C345.614 116.77 339.254 100.89 323.954 96.1599C322.404 95.9899 321.474 96.9799 320.414 97.8899C315.714 101.87 310.614 105.16 304.584 106.77C304.634 109.69 304.684 112.61 304.724 115.53C306.594 115.63 307.854 116.96 309.284 117.89C314.474 121.28 319.544 124.84 325.404 127.06C326.694 127.55 328.874 127.36 328.904 129.22C328.934 130.93 327.164 131.85 325.674 132.44C320.154 134.61 314.764 137.17 308.844 138.19C309.114 141 310.944 143.22 311.734 145.85C315.974 160.08 312.924 172.75 303.384 183.84C301.384 186.16 300.504 187.97 302.194 190.6V190.58ZM344.274 184.49C344.204 188.28 341.474 191.5 338.414 191.4C334.664 191.28 331.374 187.98 331.494 184.48C331.614 181.08 334.824 178.18 338.544 178.11C341.974 178.04 344.344 180.68 344.274 184.49Z" fill="#969751"/>
<path d="M304.584 106.75C310.614 105.13 315.714 101.84 320.414 97.8699C321.484 96.9699 322.414 95.9699 323.954 96.1399C323.364 94.2499 325.034 93.5299 325.904 92.4099C328.114 89.5499 330.424 86.7599 332.604 83.8799C333.254 83.0199 334.004 81.9799 333.074 80.8299C332.404 79.9999 331.464 79.5999 330.404 79.8199C321.214 81.8099 312.264 79.7399 303.374 77.9699C295.644 76.4299 288.024 74.9099 280.064 77.4499C280.124 74.7299 281.614 73.7399 283.414 73.0399C291.964 69.7099 296.784 61.1999 295.384 52.1799C293.204 38.1199 286.654 25.7599 280.404 13.2799C279.804 12.0799 278.894 10.9599 277.904 10.0499C276.684 8.93991 275.124 8.88991 274.724 10.7599C272.504 21.1299 268.224 30.9099 266.184 41.3299C264.454 50.1899 266.474 58.1299 271.564 65.4399C272.174 66.3199 273.154 67.0999 272.994 68.3899C275.774 71.4499 278.084 74.7899 279.034 78.8999C280.014 79.4199 280.784 80.1599 281.254 81.1799C284.974 83.4499 288.704 85.7099 292.424 87.9799C294.174 84.9599 297.394 84.0699 300.214 82.6199C301.274 82.0699 302.714 81.2299 303.474 82.6699C304.284 84.1999 302.664 84.7099 301.604 85.2599C299.214 86.5099 296.644 87.4599 294.764 89.5299C295.064 91.1599 296.654 91.4899 297.644 92.4299C300.774 92.5999 303.814 92.1199 306.844 91.3199C311.654 90.0599 316.434 88.7899 320.954 86.6299C322.164 86.0499 324.314 84.4899 325.174 86.4899C325.934 88.2599 323.444 88.5199 322.254 89.1199C318.994 90.7699 315.624 92.2099 312.384 93.6799C312.544 94.6399 313.174 94.5299 313.544 94.7899C314.494 95.4199 316.614 95.0499 316.264 96.6799C315.874 98.4699 313.854 97.8899 312.764 97.4799C308.594 95.9299 304.164 96.4899 299.924 95.5799C301.624 99.2399 303.824 102.69 304.574 106.74L304.584 106.75ZM284.534 48.4099C285.764 46.5999 286.464 45.4499 287.294 44.4099C287.984 43.5499 287.894 41.3799 289.534 42.1299C291.014 42.8099 289.924 44.3399 289.404 45.4099C286.684 50.9399 282.684 56.0099 283.434 62.7499C283.514 63.5099 283.034 64.2799 282.174 64.3499C281.064 64.4399 280.634 63.5799 280.614 62.6599C280.534 59.9199 280.594 57.1699 280.514 54.4299C280.244 45.5199 281.814 36.1199 273.914 29.1899C273.564 28.8799 273.334 28.3599 273.214 27.8999C273.044 27.2199 273.354 26.4499 274.074 26.5799C278.814 27.4499 276.494 24.3099 276.314 22.5699C276.184 21.2999 275.674 19.6799 277.164 19.3899C278.754 19.0799 278.754 20.8999 279.044 22.0499C281.154 30.4699 283.204 38.8999 284.544 48.4199L284.534 48.4099Z" fill="#CAC761"/>
<path d="M57.1443 107.58C60.9343 106.05 64.6843 104.42 68.5243 103.03C70.4343 102.34 70.7043 101.71 69.1543 100.33C66.0943 97.6099 63.0243 94.8899 60.0743 92.0499C56.3543 88.4699 54.2743 84.0599 54.0243 78.8499C50.8443 79.0299 50.0943 81.0899 50.3443 83.7699C50.6943 87.5899 52.5343 90.8799 54.2243 94.2199C54.5743 94.9199 55.7243 95.5799 54.8043 96.4399C53.9443 97.2399 52.8143 96.7599 52.0443 96.1599C50.6643 95.1099 49.4343 93.8499 48.1143 92.6999C44.0543 89.1799 39.4543 86.8399 34.0143 86.4099C31.4343 86.2099 29.2143 86.8299 28.1743 89.4399C27.1643 91.9699 28.2943 93.9899 29.9543 95.8999C30.9543 97.0499 33.6043 97.5799 32.8443 99.1899C32.1543 100.66 29.6643 99.9799 27.9843 99.9599C20.9443 99.8599 14.3743 101.44 8.32427 105.05C4.51427 107.33 3.19427 110.25 4.47427 113.34C5.89427 116.76 8.77427 117.78 13.2543 116.58C19.2543 114.96 24.0443 111.54 28.0443 106.88C29.9443 104.67 32.0543 102.74 35.0643 102.21C36.8743 101.89 37.9443 102.03 37.2143 104.48C36.3943 107.23 36.2943 110.14 37.3943 112.93C39.1343 117.36 43.1143 118.15 46.5343 114.73C49.6143 111.66 50.7143 107.69 51.3443 103.59C51.7643 100.89 52.6643 99.3399 55.8543 99.9499C57.7743 100.32 58.1243 101.11 57.6443 102.72C57.1743 104.3 57.0043 105.9 57.1443 107.53V107.58Z" fill="#7A8451"/>
<path d="M189.794 35.4499C199.184 34.4699 208.534 34.1699 217.874 36.0899C222.374 37.0199 226.634 38.6899 231.034 39.8999C231.844 33.2799 231.794 26.7299 229.524 20.3499C225.464 8.9399 213.874 5.5199 204.224 12.9099C196.694 18.6699 192.364 26.4999 189.794 35.4499Z" fill="#6C7341"/>
<path d="M156.444 53.4199C160.364 50.4999 164.274 47.5399 168.234 44.6699C169.304 43.8899 170.574 43.3899 171.744 42.7499C172.024 42.5799 172.304 42.3999 172.584 42.2299C172.874 41.6099 173.414 41.4299 174.044 41.4199C177.234 39.2399 180.904 38.1999 184.514 37.0599C185.674 36.6899 186.954 36.6699 187.774 35.5799C185.524 31.8399 183.334 28.0599 180.484 24.7099C176.144 19.5999 170.594 16.8099 163.994 16.1099C157.474 15.4099 153.394 18.8899 150.794 27.1999C149.984 36.5199 152.344 45.1599 156.444 53.4199Z" fill="#6C7341"/>
<path d="M155.964 247.71C141.534 238.16 132.204 224.98 128.094 208.19C127.304 204.97 127.064 201.55 127.024 198.22C126.964 193.4 125.814 191.63 120.854 190.05C115.374 194.89 111.264 200.79 107.734 207.13C107.204 208.09 105.874 209.34 107.994 210.05C120.024 214.04 124.994 223.94 128.604 234.87C129.994 239.08 130.934 243.45 132.084 247.74C134.984 246.55 137.334 244.54 139.734 242.6C140.344 242.11 140.764 241.26 141.694 242.57C146.214 248.88 148.564 249.66 155.964 247.71Z" fill="#6C7341"/>
<path d="M258.174 262.74C256.354 262.2 254.544 261.67 252.724 261.13C244.994 264.17 237.204 267.04 228.964 268.43C227.984 268.6 226.994 268.7 226.014 268.83C218.314 270.8 210.514 270.54 202.694 269.93C201.454 269.83 200.224 269.71 198.994 269.6C200.494 272.68 202.504 275.33 205.394 277.24C208.574 273.52 212.134 272.49 215.734 274.26C218.924 275.82 219.564 278.3 218.134 283.48C228.034 284.05 236.434 281.69 240.554 271.52C241.414 269.4 242.464 270.69 243.454 270.99C251.334 273.42 256.244 270.68 258.184 262.73L258.174 262.74Z" fill="#6C7341"/>
<path d="M194.864 268.77C193.274 268.27 191.684 267.76 189.974 267.96C185.404 274.09 179.154 277.59 171.914 279.54C170.364 279.96 168.804 280.33 167.244 280.72C167.284 281.71 167.324 282.7 167.364 283.7C174.764 282.52 181.154 278.97 187.404 275.1C188.324 274.53 189.354 273.37 190.384 273.97C191.714 274.75 190.784 276.25 190.594 277.36C188.794 288.07 185.834 298.4 180.104 307.77C180.714 308.54 181.534 308.96 182.464 309.2C187.054 303.42 188.234 296.05 191.614 289.21C195.874 293.44 198.694 298.23 201.254 303.2C202.224 302.91 203.194 302.63 204.164 302.34C201.934 297.27 198.974 292.64 195.064 288.74C192.984 286.66 192.254 284.47 192.744 281.68C193.484 277.39 194.164 273.08 194.874 268.78L194.864 268.77Z" fill="#AB783E"/>
<path d="M186.744 266.84C179.434 263.45 173.014 258.9 167.594 252.87C165.544 250.59 162.334 250.2 159.474 249.37C158.604 256.68 160.284 262.92 166.954 267.02C173.574 271.08 180.184 271.58 186.734 266.85L186.744 266.84Z" fill="#6C7341"/>
<path d="M233.884 40.6099C237.764 44.2399 242.994 45.9299 246.814 49.6799C248.724 51.5499 251.204 52.8899 252.064 55.6699C252.784 56.1899 253.514 56.7099 254.234 57.2199L254.404 57.0799C251.264 48.9799 249.434 40.4699 246.734 32.2299C246.354 31.0599 245.834 29.9099 245.234 28.8299C243.334 25.4599 240.984 25.3699 239.274 28.7599C237.324 32.6299 235.664 36.6599 233.884 40.6099Z" fill="#CAC761"/>
<path d="M136.174 66.1699C133.764 61.8499 134.644 57.6999 136.414 53.3499C138.704 47.7199 140.534 41.8999 142.564 36.1599C142.014 35.3399 141.124 35.4199 140.314 35.3199C138.304 40.8599 136.294 46.3999 134.284 51.9399C134.294 52.8699 133.834 53.9499 133.124 53.9499C132.204 53.9499 132.054 52.8299 132.134 51.9399C130.124 44.7899 130.294 37.5099 130.764 30.1999C130.744 29.7299 130.734 29.2499 130.714 28.7799C130.324 28.7499 129.944 28.7299 129.554 28.6999C127.114 35.9799 128.014 43.4499 128.544 51.8199C124.874 49.2099 122.234 46.6199 119.854 43.7299C119.024 44.1899 118.544 44.8799 118.484 45.8399C119.294 46.7699 119.954 47.9299 120.944 48.6099C128.304 53.6499 131.994 61.0499 134.474 69.2699C135.694 68.5999 135.924 67.3899 136.194 66.1899L136.174 66.1699Z" fill="#AB783E"/>
<path d="M97.0541 211.58C103.254 208.89 106.554 203.64 109.934 197.26C102.684 198.11 96.2441 199.82 89.7241 198.27C89.8441 203.99 92.8541 208.11 97.0541 211.58Z" fill="#6C7341"/>
<path d="M182.464 309.19C181.534 308.95 180.714 308.53 180.104 307.76C178.914 307.44 177.734 306.94 176.534 306.85C171.894 306.5 168.094 309.54 168.184 313.37C168.274 316.99 172.224 320.5 176.074 320.37C180.534 320.23 183.604 316.62 183.074 312.1C182.954 311.12 182.674 310.16 182.464 309.18V309.19Z" fill="#F37955"/>
<path d="M204.164 302.33C203.194 302.62 202.224 302.9 201.254 303.19C200.424 304.27 199.404 305.25 198.784 306.43C197.074 309.7 198.454 313.69 201.704 315.35C205.254 317.16 209.504 315.54 211.374 311.68C213.134 308.04 211.974 304.48 208.564 302.85C207.134 302.17 205.654 302.33 204.164 302.33Z" fill="#F37955"/>
<path d="M167.364 283.69C167.324 282.7 167.284 281.71 167.244 280.71C165.414 278.98 163.534 277.47 160.754 277.56C157.484 277.67 154.774 278.52 153.914 282.06C153.154 285.21 155.104 288.43 158.164 289.46C161.454 290.56 165.164 289.35 166.644 286.55C167.094 285.71 167.134 284.65 167.364 283.7V283.69Z" fill="#F37955"/>
<path d="M218.124 283.49C219.554 278.31 218.914 275.83 215.724 274.27C212.124 272.51 208.564 273.53 205.384 277.25C205.064 280.54 205.764 283.38 208.944 285.07C212.404 286.92 215.334 285.56 218.134 283.49H218.124Z" fill="#F37955"/>
<path d="M129.544 28.6899C129.934 28.7199 130.314 28.7399 130.704 28.7699C131.154 28.7699 131.604 28.7699 132.054 28.7699C133.634 28.1899 134.844 27.1799 135.724 25.7299C137.734 22.4199 137.194 18.5599 134.454 16.6999C131.774 14.8799 127.064 16.0299 125.224 18.9599C123.434 21.7899 124.434 25.7599 127.504 27.7999C128.114 28.1999 128.864 28.3999 129.544 28.6899Z" fill="#F37955"/>
<path d="M347.584 141.56C343.984 141.51 340.734 144.88 340.734 148.64C340.734 151.81 343.554 154.64 346.724 154.66C350.044 154.69 353.004 151.34 353.004 147.55C353.004 144.18 350.664 141.6 347.574 141.56H347.584Z" fill="#F37955"/>
<path d="M118.474 45.8299C118.534 44.8699 119.014 44.1799 119.844 43.7199C121.064 37.7599 118.694 34.2399 113.694 34.6599C111.144 34.8799 109.184 36.0999 108.234 38.5199C107.294 40.9199 107.824 43.1999 109.464 45.1299C111.124 47.0899 113.364 47.1199 115.624 46.5299C116.564 46.2799 117.414 45.6699 118.464 45.8399L118.474 45.8299Z" fill="#F37955"/>
<path d="M140.315 35.3199C141.135 35.4199 142.015 35.3399 142.565 36.1599C148.275 35.6899 150.525 32.8199 149.565 27.2499C146.655 23.9499 143.355 23.1699 140.615 25.1499C137.805 27.1699 137.595 30.1999 139.955 34.2799C140.135 34.5899 140.195 34.9699 140.315 35.3199Z" fill="#F37955"/>
<path d="M28.5843 138.15C29.0643 135.98 29.6743 133.83 29.9743 131.63C30.1443 130.39 29.6943 129.07 28.3143 128.58C26.9143 128.08 26.2143 129.12 25.7943 130.19C24.8343 132.63 23.8143 131.65 22.6543 130.38C21.8843 129.53 20.9643 128.72 19.7543 129.58C18.6643 130.35 18.6843 131.51 19.0943 132.62C19.9543 134.95 20.8843 137.24 21.7843 139.55C22.0543 139.58 22.3143 139.61 22.5843 139.64C23.9043 138.47 25.5443 139.06 27.0343 138.86C27.5543 138.62 28.0643 138.38 28.5843 138.14V138.15Z" fill="#D8D8D3"/>
<path d="M382.524 115.64C383.064 113.04 385.474 111.76 386.754 109.67C387.404 108.61 388.194 107.64 388.424 106.39C388.614 105.32 388.194 104.47 387.424 103.72C386.494 102.82 385.614 103.27 384.704 103.72C383.604 104.25 382.844 105.42 381.374 105.46C381.044 104.41 380.744 103.37 380.394 102.35C379.974 101.12 379.994 99.3399 378.164 99.4099C376.704 99.4699 375.824 100.77 375.224 102.01C373.624 105.3 374.504 108.87 374.164 112.3C374.064 112.47 374.104 112.6 374.274 112.7C376.274 112.87 378.184 113.29 379.704 114.74C380.644 115.04 381.584 115.35 382.534 115.65L382.524 115.64Z" fill="#D8D8D3"/>
<path d="M378.254 126.53C380.474 127.24 382.654 126.81 384.854 126.35C386.544 126 387.984 125.43 388.374 123.55C388.744 121.73 388.434 120.1 386.904 118.85C385.674 117.85 384.674 116.47 382.904 116.33C381.354 119.73 379.814 123.13 378.264 126.53H378.254Z" fill="#FBDB6C"/>
<path d="M379.694 114.73C378.174 113.27 376.264 112.86 374.264 112.69C373.704 116.89 370.604 120.05 369.604 124.07C370.874 125.26 372.494 125.42 374.104 125.61C375.964 121.99 377.834 118.36 379.694 114.74V114.73Z" fill="#FBDB6C"/>
<path d="M370.135 112.16C369.765 112.09 369.405 111.97 369.035 111.96C365.905 111.86 362.695 112.18 361.695 115.67C360.705 119.16 362.685 121.6 365.835 123.1C366.395 119.11 368.805 115.85 370.135 112.16Z" fill="#FBDB6C"/>
<path d="M370.134 112.16C368.804 115.85 366.394 119.11 365.834 123.1C367.094 123.42 368.344 123.74 369.604 124.06C370.604 120.04 373.704 116.88 374.264 112.68C374.084 112.59 374.054 112.45 374.154 112.28C372.814 112.24 371.474 112.2 370.124 112.15L370.134 112.16Z" fill="#7E5E23"/>
<path d="M379.694 114.73C377.834 118.35 375.964 121.98 374.104 125.6C375.354 126.5 376.774 126.65 378.254 126.53C379.794 123.13 381.345 119.73 382.895 116.33C382.765 116.1 382.644 115.87 382.514 115.64C381.574 115.34 380.634 115.03 379.684 114.73H379.694Z" fill="#7E5E23"/>
<path d="M30.6442 147.09C31.1142 147.03 31.6942 147.12 32.0342 146.87C34.0342 145.44 37.2242 144.59 36.2742 141.29C35.3742 138.15 32.4542 138.37 29.8242 138.52C30.0942 141.38 30.3642 144.23 30.6342 147.09H30.6442Z" fill="#FBDB6C"/>
<path d="M27.0342 138.88C25.5442 139.08 23.9042 138.49 22.5842 139.66C23.8842 142.8 23.3142 146.11 23.4442 149.36C25.0142 149.53 26.4342 148.92 27.8942 148.5C26.8042 145.37 27.0842 142.11 27.0342 138.89V138.88Z" fill="#FBDB6C"/>
<path d="M19.4642 140.98C16.9242 141.8 14.8342 143.27 15.2442 146.17C15.6442 149.05 17.8742 150.07 20.6742 149.81C20.2742 146.86 19.8642 143.92 19.4642 140.97V140.98Z" fill="#FBDB6C"/>
<path d="M19.4644 140.98C19.8644 143.93 20.2744 146.87 20.6744 149.82C21.6044 149.67 22.5244 149.51 23.4544 149.35C23.3144 146.1 23.8944 142.79 22.5944 139.65C22.3244 139.62 22.0644 139.59 21.7944 139.56C21.0144 140.03 20.2444 140.51 19.4644 140.98Z" fill="#7E5E23"/>
<path d="M27.0342 138.88C27.0942 142.11 26.8042 145.36 27.8942 148.49C28.8042 148.02 29.7242 147.56 30.6442 147.09C30.3742 144.23 30.1042 141.38 29.8342 138.52C29.4142 138.4 29.0042 138.27 28.5842 138.15C28.0642 138.39 27.5542 138.63 27.0342 138.87V138.88Z" fill="#7E5E23"/>
<path d="M390.044 165.83C390.504 164.03 391.074 162.26 391.384 160.44C391.654 158.82 391.614 156.98 389.734 156.35C387.784 155.7 387.224 157.33 386.744 158.8C386.634 159.14 386.364 159.43 386.054 159.95C385.414 159.18 384.984 158.75 384.664 158.26C383.874 157.06 382.774 156.54 381.484 157.18C380.124 157.86 380.294 159.1 380.534 160.42C380.984 162.89 383.414 164.54 383.234 167.24C383.654 167.31 384.074 167.38 384.494 167.45C385.654 166.33 387.034 165.92 388.624 166.16C389.104 166.05 389.584 165.94 390.064 165.83H390.044Z" fill="#D8D8D3"/>
<path d="M392.254 174.92C392.814 174.71 393.484 174.63 393.934 174.27C395.734 172.81 398.884 171.95 397.864 168.84C396.884 165.86 394.064 165.79 391.364 166.15C391.664 169.07 391.964 171.99 392.254 174.91V174.92Z" fill="#FBDB6C"/>
<path d="M388.604 166.16C387.014 165.92 385.634 166.34 384.484 167.46C385.034 170.51 384.504 173.68 385.544 176.66C386.794 176.45 388.144 176.71 389.254 175.88C388.284 172.69 388.424 169.43 388.604 166.17V166.16Z" fill="#FBDB6C"/>
<path d="M385.535 176.65C384.495 173.66 385.025 170.49 384.475 167.45C384.055 167.38 383.635 167.31 383.215 167.24C382.435 167.71 381.655 168.17 380.875 168.64C381.255 171.47 381.625 174.3 382.005 177.13C383.245 177.41 384.445 177.47 385.535 176.65Z" fill="#7E5E23"/>
<path d="M382.004 177.13C381.624 174.3 381.254 171.47 380.874 168.64C378.274 169.41 376.174 170.88 376.714 173.83C377.194 176.48 379.224 177.66 382.004 177.13Z" fill="#FBDB6C"/>
<path d="M388.604 166.16C388.414 169.43 388.284 172.69 389.254 175.87C390.364 175.9 391.434 175.82 392.254 174.92C391.954 172 391.654 169.08 391.364 166.16C390.924 166.05 390.484 165.94 390.054 165.83C389.574 165.94 389.094 166.05 388.614 166.16H388.604Z" fill="#7E5E23"/>
<path d="M254.294 57.8799C254.504 57.8799 254.724 57.9099 254.934 57.9299C254.754 57.6499 254.584 57.3599 254.404 57.0799L254.234 57.2199C254.254 57.4399 254.274 57.6599 254.284 57.8799H254.294Z" fill="#CAC761"/>
<path d="M221.994 163.64C210.084 164.08 199.454 172.16 195.424 183.83C191.344 195.64 194.424 207.9 203.334 215.37C204.544 214.2 205.744 215.36 206.794 215.6C214.574 217.35 222.004 216.79 228.994 212.71C238.334 207.26 243.574 198.85 243.554 188.3C243.534 178.1 238.214 170.21 227.434 165.87C225.614 165.14 223.534 165.05 221.994 163.64Z" fill="#BD7F38"/>
<path d="M221.994 163.64C223.534 165.05 225.614 165.14 227.434 165.87C238.214 170.2 243.534 178.09 243.554 188.3C243.574 198.85 238.334 207.26 228.994 212.71C222.004 216.79 214.584 217.35 206.794 215.6C205.744 215.36 204.544 214.21 203.334 215.37C213.024 223.63 223.964 224.5 235.164 219.64C246.794 214.59 252.864 205.23 253.574 192.42C254.514 175.34 239.564 162.48 224.494 163.07C223.624 163.1 222.734 163.03 222.004 163.65L221.994 163.64Z" fill="#A77032"/>
<path d="M308.854 138.17C314.774 137.16 320.164 134.59 325.684 132.42C327.174 131.83 328.944 130.91 328.914 129.2C328.884 127.34 326.704 127.53 325.414 127.04C319.554 124.81 314.474 121.26 309.294 117.87C307.864 116.94 306.604 115.61 304.734 115.51C304.324 119.75 302.524 123.63 301.564 127.73C305.484 127.95 309.364 128.71 313.324 128.52C314.464 128.47 316.174 128.6 316.094 130.19C316.034 131.53 314.484 131.42 313.384 131.43C310.174 131.46 306.964 131.44 303.754 131.45C305.114 133.95 306.684 136.28 308.844 138.17H308.854Z" fill="#CAC761"/>
<path d="M241.044 138.68C258.314 138.31 275.444 136.53 292.164 131.91C294.064 131.39 295.874 130.46 297.624 129.53C298.424 129.1 299.464 128.37 298.824 127.16C298.274 126.1 297.184 126.08 296.184 126.36C293.554 127.1 290.934 127.91 288.324 128.71C278.654 131.65 268.754 133.08 258.684 133.74C249.384 134.36 240.114 135.39 230.774 135.21C229.594 135.19 228.374 135.38 228.224 136.81C228.054 138.47 229.724 138.55 230.584 138.6C234.064 138.79 237.554 138.68 241.034 138.68H241.044Z" fill="#FBC350"/>
<path d="M279.764 102.23C279.404 106.21 281.344 109.32 284.534 111.61C288.254 114.29 292.174 112.37 292.514 107.79C292.814 103.71 292.234 99.9199 289.104 96.7899C287.204 94.8899 285.294 94.0999 282.774 95.1099C280.294 96.0999 279.704 98.1599 279.774 100.57C279.784 101.07 279.774 101.57 279.774 102.24L279.764 102.23Z" fill="#F9E792"/>
<path d="M299.254 156.95C298.724 155.19 298.704 153.19 298.374 151.25C298.074 149.48 296.734 148.24 294.764 147.97C292.714 147.68 291.734 148.98 291.224 150.6C289.664 155.56 288.854 160.7 288.114 165.83C287.904 167.31 288.614 168.95 290.184 169.48C291.874 170.06 293.534 169.85 294.984 168.42C298.164 165.28 298.204 161.04 299.244 156.96L299.254 156.95Z" fill="#F9E792"/>
<path d="M169.624 87.2899C169.264 87.3599 167.914 86.7399 167.574 88.0199C167.164 89.5799 168.674 89.8799 169.664 90.0599C173.204 90.6999 176.764 91.2099 180.324 91.6699C192.254 93.1899 204.194 92.0899 216.124 91.6899C217.424 91.6499 218.914 91.5399 218.804 89.8599C218.694 88.2299 217.114 88.7999 216.094 88.7199C214.974 88.6299 213.844 88.6799 212.724 88.6999C198.514 88.9199 184.334 88.4399 169.614 87.2999L169.624 87.2899Z" fill="#FBC350"/>
<path d="M275.355 242.46C277.385 241.17 278.275 238.93 279.755 237.17C273.155 237.85 267.035 240.48 260.625 241.95C254.825 243.28 249.055 244.7 243.145 245.48C242.305 245.59 241.465 245.92 240.685 246.28C239.865 246.66 239.175 247.29 239.515 248.34C239.805 249.25 240.655 249.15 241.395 249.19C246.785 249.44 252.005 248.24 257.265 247.36C263.145 246.37 268.645 243.86 274.605 243.24H274.555C274.825 242.98 275.095 242.72 275.375 242.46H275.355Z" fill="#FBC350"/>
<path d="M269.434 199.03C278.304 197.15 287.614 194.97 296.264 190.65C297.314 190.13 298.804 189.42 298.014 187.88C297.314 186.51 295.904 186.88 294.684 187.35C288.634 189.67 282.534 191.83 276.274 193.5C273.764 194.17 271.194 194.65 268.644 195.14C267.154 195.42 264.864 194.75 265.004 197.18C265.134 199.53 267.384 198.76 269.444 199.03H269.434Z" fill="#FBC350"/>
<path d="M299.934 95.5899C304.164 96.4999 308.604 95.9299 312.774 97.4899C313.864 97.8999 315.884 98.4799 316.274 96.6899C316.624 95.0599 314.504 95.4399 313.554 94.7999C313.174 94.5499 312.554 94.6499 312.394 93.6899C315.624 92.2099 319.004 90.7799 322.264 89.1299C323.444 88.5299 325.944 88.2699 325.184 86.4999C324.324 84.4999 322.184 86.0599 320.964 86.6399C316.434 88.7999 311.664 90.0699 306.854 91.3299C303.814 92.1299 300.784 92.6099 297.654 92.4399C297.914 93.8599 298.884 94.7599 299.954 95.5899H299.934Z" fill="#A2A048"/>
<path d="M254.295 57.8799C254.295 57.6599 254.265 57.4399 254.245 57.2199C253.515 56.6999 252.795 56.1799 252.075 55.6699C243.365 58.8899 234.315 60.1099 225.075 60.2199C224.055 60.2299 222.395 59.6999 222.305 61.2399C222.205 62.8699 224.135 62.9599 225.145 63.0199C233.365 63.4999 241.595 63.6599 249.375 60.3299C251.045 59.6099 253.085 59.5499 254.305 57.8799H254.295Z" fill="#FBC350"/>
<path d="M281.254 81.1999C280.784 80.1799 280.014 79.4499 279.034 78.9199C272.204 80.6599 265.854 84.0099 258.814 85.0999C257.884 85.2399 257.234 85.9899 257.494 87.0099C257.784 88.1399 258.834 87.9399 259.674 87.9399C267.564 87.9199 274.864 86.0099 281.264 81.1999H281.254Z" fill="#FBC350"/>
<path d="M280.534 125.51C280.694 122.52 279.504 120.52 276.494 120.25C274.244 120.05 273.064 121.43 273.054 123.69C273.054 126.23 275.514 129.09 277.714 129.18C280.474 129.29 280.624 127.45 280.524 125.51H280.534Z" fill="#F9E792"/>
<path d="M176.394 198.98C174.764 198.96 173.474 199.2 173.434 200.82C173.404 202.19 174.484 202.64 175.724 202.69C178.424 202.8 181.024 203.84 183.774 203.43C185.004 203.25 185.984 202.81 185.874 201.39C185.784 200.19 184.844 199.77 183.774 199.73C181.194 199.63 178.584 199.94 176.394 198.98Z" fill="#FBC350"/>
<path d="M303.764 131.45C306.974 131.45 310.184 131.45 313.394 131.43C314.484 131.43 316.044 131.53 316.104 130.19C316.184 128.6 314.474 128.46 313.334 128.52C309.374 128.71 305.494 127.95 301.574 127.73C301.144 129.66 302.464 130.55 303.774 131.45H303.764Z" fill="#A2A048"/>
<path d="M194.004 135.29C192.884 135.29 191.754 135.19 190.654 135.32C189.894 135.41 189.314 135.97 189.184 136.8C189.034 137.84 189.594 138.61 190.494 138.76C192.644 139.12 194.724 140.33 197.024 139.14C198.004 138.64 199.414 138.61 199.354 137.17C199.284 135.56 197.804 135.42 196.604 135.23C195.754 135.1 194.864 135.2 193.994 135.2C193.994 135.22 193.994 135.25 193.994 135.27L194.004 135.29Z" fill="#FBC350"/>
<path d="M294.754 89.5499C296.624 87.4799 299.204 86.5299 301.594 85.2799C302.654 84.7199 304.274 84.2199 303.464 82.6899C302.704 81.2499 301.264 82.0999 300.204 82.6399C297.384 84.0999 294.164 84.9799 292.414 87.9999C292.994 88.8199 293.694 89.4399 294.744 89.5499H294.754Z" fill="#A2A048"/>
<path d="M174.054 41.4099C173.424 41.4199 172.884 41.5999 172.594 42.2199C173.214 42.1899 173.754 42.0099 174.054 41.4099Z" fill="#FBC350"/>
<path d="M66.6741 241.33C67.1441 237.79 66.5741 234.37 65.4041 231.05C64.5341 228.58 64.7641 226.45 66.9141 224.68C67.6341 224.08 68.7041 223.34 67.8141 222.22C66.7141 220.84 65.8341 222.13 64.9841 222.72C59.8641 226.26 56.3741 231.33 52.7841 236.23C50.8941 238.81 49.1341 240.92 45.5941 240.21C45.3541 240.16 45.0641 240.16 44.8541 240.26C42.7841 241.18 38.6741 240.65 38.9941 242.96C39.3341 245.35 42.7141 243.48 44.7841 243.26C45.5041 243.18 46.4441 242.92 46.8541 243.64C47.4241 244.65 46.3741 245.19 45.8141 245.78C41.5841 250.19 37.3641 254.61 32.1241 257.88C31.4941 258.27 30.8141 258.64 30.2941 259.16C29.4641 259.98 27.9041 260.84 29.0241 262.18C30.0241 263.39 31.2341 262.35 32.3241 261.7C42.0641 255.85 49.0341 247.3 55.4641 238.19C56.8941 236.16 58.4541 234.21 59.9241 232.21C60.4241 231.53 60.7141 230.46 61.8241 230.77C62.9941 231.11 63.0041 232.21 63.0641 233.23C63.3041 237.7 63.5441 242.16 63.8141 246.63C63.8741 247.56 63.4841 248.89 64.8941 249.02C66.1641 249.13 66.5341 247.84 66.6141 246.94C66.7941 245.09 66.6641 243.21 66.6641 241.34L66.6741 241.33Z" fill="#A2A048"/>
<path d="M124.634 266.82C123.134 261.49 121.684 255.85 119.604 250.38C119.244 249.43 118.144 248.08 119.174 247.33C120.514 246.35 121.214 248.13 122.204 248.74C123.754 249.7 124.944 253.17 126.614 251.47C128.554 249.49 125.284 247.7 123.894 246.89C114.644 241.46 111.524 231.63 106.364 223.27C106.034 222.74 105.794 222.16 105.444 221.65C104.994 220.99 104.344 220.54 103.544 220.92C102.664 221.34 102.784 222.17 103.164 222.84C105.114 226.23 104.274 229.43 102.954 232.84C101.204 237.38 100.694 242.23 100.584 247.09C100.564 248.08 100.034 249.68 101.724 249.74C103.114 249.79 103.434 248.31 103.444 247.25C103.484 243.37 104.164 239.6 105.034 235.85C105.234 235 105.494 234.18 105.754 233.34C106.004 232.52 106.154 231.49 107.284 231.54C108.154 231.58 108.314 232.52 108.644 233.15C111.454 238.44 113.774 243.93 115.594 249.65C117.524 255.69 119.574 261.7 121.594 267.72C121.934 268.75 122.144 270.25 123.574 270C125.114 269.73 124.374 268.18 124.634 266.84V266.82Z" fill="#A2A048"/>
<path d="M85.1741 189.97C88.7641 189.53 91.9541 187.78 94.7641 185.51C97.6241 183.2 100.014 182.77 102.794 185.62C104.154 187.01 106.034 187.91 107.734 188.95C108.384 189.35 109.294 189.43 109.804 188.77C110.404 187.99 109.624 187.42 109.154 186.88C104.704 181.81 98.6741 179.43 92.5541 177.23C92.3241 177.15 92.0541 177.18 91.8141 177.12C87.7041 175.92 83.6841 174.66 83.9341 169.13C83.9641 168.56 83.5841 167.93 83.2741 167.4C82.3841 165.85 81.6841 163.04 79.6241 164.05C77.4641 165.1 80.3741 166.58 80.5641 168C80.6441 168.6 80.9741 169.17 81.1741 169.76C81.5241 170.8 82.2641 171.94 81.3741 172.92C80.4441 173.95 79.3041 173.18 78.2541 172.85C74.1141 171.57 70.8541 168.85 67.4041 166.4C66.3341 165.64 64.8941 163.53 63.6941 164.93C62.5341 166.3 64.8641 167.25 65.7441 168.27C69.9041 173.09 75.4741 175.46 81.4241 177.17C84.7641 178.13 88.0841 179.2 91.3941 180.27C92.3141 180.57 93.4841 180.78 93.6341 181.96C93.8141 183.37 92.5641 183.78 91.5941 184.3C89.3941 185.49 87.1241 186.51 84.6441 186.95C83.5741 187.14 82.5941 187.53 82.6841 188.77C82.7941 190.23 84.0741 189.85 85.1441 189.97H85.1741Z" fill="#A2A048"/>
<path d="M153.134 55.5999C151.494 51.4999 148.524 49.9199 145.214 51.3799C142.184 52.7199 141.084 56.5299 142.684 60.1499C145.974 58.1899 149.604 57.0099 153.134 55.5999Z" fill="#F37955"/>
<path d="M110.244 116.17C110.264 111.07 106.174 107.03 100.874 106.92C95.6345 106.81 90.8545 111.55 90.7445 116.96C90.6445 122.35 94.7145 126.76 99.8745 126.85C105.394 126.94 110.214 121.97 110.234 116.17H110.244Z" fill="#FEFEFD"/>
<path d="M303.054 250.76C303.104 245.47 299.374 241.55 294.334 241.59C288.874 241.63 284.394 246.31 284.294 252.07C284.214 256.78 287.534 260.48 291.884 260.54C297.814 260.62 303.004 256.08 303.054 250.76Z" fill="#AD4020"/>
<path d="M308.244 222.92C308.144 223.04 308.054 223.16 307.954 223.28C308.064 223.18 308.184 223.08 308.294 222.97L308.234 222.91L308.244 222.92Z" fill="#969751"/>
<path d="M275.354 242.46C275.084 242.72 274.814 242.98 274.534 243.24C274.804 242.98 275.074 242.72 275.354 242.46Z" fill="#FBDB6C"/>
<path d="M373.474 278.45C374.884 278.56 376.524 278.21 378.094 278.85C379.114 279.27 380.264 279.27 380.634 278.11C381.144 276.5 379.654 276.4 378.634 276.06C375.344 274.97 371.904 275.01 368.664 275.79C364.684 276.75 361.634 275.65 358.734 273.07C353.144 268.09 346.664 264.73 339.394 262.94C338.274 262.67 336.634 261.99 336.254 263.71C335.964 265.07 337.584 265.25 338.584 265.65C339.044 265.84 339.524 265.98 339.994 266.14C345.704 268.12 345.864 268.12 345.704 274.23C345.584 278.9 347.824 282.62 349.894 286.45C350.404 287.4 351.284 288.57 352.554 287.92C353.894 287.23 353.224 285.97 352.754 284.97C351.424 282.15 349.774 279.47 349.004 276.41C348.794 275.58 348.744 274.67 348.804 273.81C348.874 272.74 348.224 271.3 349.334 270.7C350.464 270.08 351.384 271.39 352.204 272C356.174 275 360.134 278.03 363.904 281.27C368.494 285.22 373.904 287.24 379.654 288.62C380.394 288.8 381.184 289.1 381.554 288.15C381.904 287.23 381.164 286.82 380.504 286.45C377.564 284.81 374.144 284.23 371.354 282.26C370.204 281.45 367.944 281.24 368.524 279.36C369.074 277.58 371.154 278.73 372.534 278.44C372.774 278.39 373.034 278.44 373.484 278.44L373.474 278.45Z" fill="#A2A048"/>
<path d="M360.514 228.92C358.654 228.58 354.814 230.16 353.974 227.62C353.264 225.45 357.214 224.62 359.174 223.3C365.474 219.05 371.794 214.81 377.074 209.27C377.864 208.44 379.524 207.53 378.304 206.26C377.304 205.22 376.334 206.85 375.514 207.38C371.214 210.13 367.734 213.99 363.244 216.51C362.414 216.98 361.644 218.09 360.604 217.36C359.534 216.61 359.884 215.26 360.114 214.23C360.394 213.04 361.044 211.93 361.564 210.8C362.034 209.78 362.884 208.41 361.824 207.74C360.424 206.85 359.684 208.57 359.004 209.45C357.434 211.48 356.624 213.84 356.984 216.46C357.414 219.57 356.414 221.67 353.364 222.97C350.624 224.14 348.084 225.77 345.464 227.22C344.734 227.62 343.654 227.89 343.924 229.01C344.154 229.96 345.154 229.76 345.834 229.68C348.294 229.41 350.454 230.26 352.694 231.11C356.974 232.74 361.394 233.13 365.814 231.59C366.654 231.3 368.114 231.39 368.014 230.01C367.904 228.58 366.554 228.96 365.634 228.92C364.134 228.86 362.634 228.9 360.484 228.9L360.514 228.92Z" fill="#A2A048"/>
<path d="M344.274 184.48C344.344 180.67 341.974 178.04 338.544 178.1C334.824 178.17 331.614 181.07 331.494 184.47C331.374 187.97 334.674 191.26 338.414 191.39C341.474 191.49 344.204 188.27 344.274 184.48Z" fill="#F37955"/>
<path d="M284.534 48.4099C283.194 38.8899 281.144 30.4599 279.034 22.0399C278.744 20.8899 278.744 19.0699 277.154 19.3799C275.654 19.6699 276.174 21.2899 276.304 22.5599C276.484 24.2999 278.804 27.4399 274.064 26.5699C273.344 26.4399 273.034 27.2099 273.204 27.8899C273.324 28.3499 273.554 28.8799 273.904 29.1799C281.804 36.1099 280.234 45.5099 280.504 54.4199C280.584 57.1599 280.524 59.9099 280.604 62.6499C280.634 63.5699 281.054 64.4299 282.164 64.3399C283.024 64.2699 283.514 63.4999 283.424 62.7399C282.674 55.9999 286.674 50.9299 289.394 45.3999C289.924 44.3299 291.004 42.7999 289.524 42.1199C287.884 41.3699 287.964 43.5399 287.284 44.3999C286.454 45.4399 285.764 46.5899 284.524 48.3999L284.534 48.4099Z" fill="#A2A048"/>
</g>
<defs>
<filter id="filter0_d_402_2237" x="-8.8" y="0.2" width="420.525" height="336.973" filterUnits="userSpaceOnUse" color-interpolation-filters="sRGB">
<feFlood flood-opacity="0" result="BackgroundImageFix"/>
<feColorMatrix in="SourceAlpha" type="matrix" values="0 0 0 0 0 0 0 0 0 0 0 0 0 0 0 0 0 0 127 0" result="hardAlpha"/>
<feOffset dy="4"/>
<feGaussianBlur stdDeviation="6.4"/>
<feComposite in2="hardAlpha" operator="out"/>
<feColorMatrix type="matrix" values="0 0 0 0 0 0 0 0 0 0 0 0 0 0 0 0 0 0 0.25 0"/>
<feBlend mode="normal" in2="BackgroundImageFix" result="effect1_dropShadow_402_2237"/>
<feBlend mode="normal" in="SourceGraphic" in2="effect1_dropShadow_402_2237" result="shape"/>
</filter>
</defs>
</svg>
