<svg width="22" height="22" viewBox="0 0 22 22" fill="none" xmlns="http://www.w3.org/2000/svg">
<path d="M8.01851 9.62702C7.55851 7.82702 6.98851 6.057 6.67851 4.237C6.40851 2.617 6.44851 0.777007 8.32851 0.147007C10.2785 -0.502993 10.8385 1.127 11.3185 2.597C11.4285 2.937 11.6985 3.22701 12.0085 3.74701C12.6485 2.97701 13.0785 2.54701 13.3985 2.05701C14.1885 0.85701 15.2885 0.337009 16.5785 0.977009C17.9385 1.65701 17.7685 2.89701 17.5285 4.21701C17.0785 6.68701 14.6485 8.33701 14.8285 11.037C14.4085 11.107 13.9885 11.177 13.5685 11.247C12.4085 10.127 11.0285 9.717 9.43852 9.957C8.95852 9.847 8.47852 9.73702 7.99852 9.62702H8.01851Z" fill="#D8D8D3"/>
<path d="M5.80872 18.717C5.24872 18.507 4.57872 18.427 4.12872 18.067C2.32872 16.607 -0.82127 15.747 0.19873 12.637C1.17873 9.65702 3.99873 9.58702 6.69873 9.94702C6.39873 12.867 6.09872 15.787 5.80872 18.707V18.717Z" fill="#FBDB6C"/>
<path d="M9.45862 9.957C11.0486 9.717 12.4286 10.137 13.5786 11.257C13.0286 14.307 13.5586 17.477 12.5186 20.457C11.2686 20.247 9.91862 20.507 8.80862 19.677C9.77862 16.487 9.63862 13.227 9.45862 9.96701V9.957Z" fill="#FBDB6C"/>
<path d="M12.5285 20.447C13.5685 17.457 13.0385 14.287 13.5885 11.247C14.0085 11.177 14.4285 11.107 14.8485 11.037C15.6285 11.507 16.4085 11.967 17.1885 12.437C16.8085 15.267 16.4385 18.097 16.0585 20.927C14.8185 21.207 13.6185 21.267 12.5285 20.447Z" fill="#7E5E23"/>
<path d="M16.0588 20.927C16.4388 18.097 16.8088 15.267 17.1888 12.437C19.7888 13.207 21.8888 14.677 21.3488 17.627C20.8688 20.277 18.8388 21.457 16.0588 20.927Z" fill="#FBDB6C"/>
<path d="M9.45869 9.957C9.64869 13.227 9.77869 16.487 8.80869 19.667C7.69869 19.697 6.62869 19.617 5.80869 18.717C6.10869 15.797 6.40871 12.877 6.69871 9.957C7.13871 9.847 7.57871 9.73701 8.00871 9.62701C8.48871 9.73701 8.96871 9.847 9.44871 9.957H9.45869Z" fill="#7E5E23"/>
</svg>
