<svg width="102" height="137" viewBox="0 0 102 137" fill="none" xmlns="http://www.w3.org/2000/svg">
<path d="M75.3709 2.86157C73.2613 0.113913 69.9521 -0.864354 66.8217 0.853993C49.0427 10.5941 -6.65037 44.5868 0.656855 84.6277C3.50659 100.237 30.9576 111.628 53.0834 93.0748C53.0834 93.0748 64.2782 118.688 87.3993 113.737C110.801 108.727 118.636 59.1076 75.3709 2.85306V2.86157Z" fill="url(#paint0_radial_396_1555)"/>
<path d="M72.4023 10.39C69.9014 26.8334 66.6263 43.1917 62.9344 59.4054C57.0733 85.1721 50.5743 112.317 37.5931 135.557C36.9806 136.654 35.1942 135.855 35.8067 134.749C48.975 111.177 55.4741 83.6664 61.3522 57.5254C64.8825 41.8221 68.047 25.9827 70.4629 10.0667C70.65 8.81625 72.5895 9.1395 72.3939 10.39H72.4023Z" fill="#3D9487"/>
<path d="M19.3971 89.0937C32.3783 83.4282 45.3595 77.7628 58.3407 72.1059C58.7575 71.9272 59.2168 72.1399 59.4805 72.4631C68.353 83.2326 77.2169 93.9935 86.0894 104.763C86.889 105.733 85.2813 106.856 84.4816 105.886C80.1858 100.671 75.8814 95.4482 71.5855 90.2336C68.5572 86.5587 65.5288 82.8838 62.5004 79.2004C61.4541 77.9329 60.3142 76.6995 59.353 75.3724C58.9446 74.8195 57.3709 73.569 58.4427 73.7902C59.6337 74.0369 57.541 74.4877 57.1327 74.7599C55.8993 75.6021 54.0618 76.0955 52.7007 76.691C48.3113 78.605 43.9303 80.519 39.5494 82.433C33.0588 85.2657 26.5683 88.0984 20.0777 90.9311C18.9208 91.433 18.2487 89.5956 19.4056 89.0852L19.3971 89.0937Z" fill="#3D9487"/>
<path d="M12.6088 68.4139C29.6562 61.8468 46.7036 55.2797 63.7509 48.7125C64.1848 48.5424 64.6101 48.738 64.8908 49.0698C74.5119 60.5368 84.1414 72.0123 93.7625 83.4793C94.5706 84.4405 92.9628 85.5634 92.1547 84.6021C86.5148 77.8819 80.8748 71.1531 75.2264 64.4328C72.0109 60.5963 68.7869 56.7598 65.5714 52.9233C64.9759 52.2087 64.1848 50.8477 63.4022 50.3373C64.5931 51.1114 64.4315 50.2012 63.1129 51.0518C60.0675 53.0254 55.6101 53.9441 52.2244 55.2456C46.7546 57.3553 41.2763 59.4649 35.8065 61.5661C28.2952 64.4584 20.7838 67.3506 13.2724 70.2429C12.0985 70.6937 11.4264 68.8563 12.6003 68.4054L12.6088 68.4139Z" fill="#3D9487"/>
<path d="M26.1601 43.9998C39.9579 39.2191 53.7642 34.4383 67.562 29.6661C68.0129 29.5045 68.4042 29.6916 68.7019 30.0234C77.047 39.2276 85.4005 48.4403 93.7455 57.6445C94.5877 58.5717 92.9799 59.6861 92.1378 58.7674C87.5272 53.6804 82.9165 48.6019 78.3059 43.5149C75.3286 40.2314 72.3513 36.9478 69.3739 33.6557C68.7614 32.9752 68.1149 31.9374 67.3493 31.427C67.1707 31.3079 68.9486 31.3164 67.3153 31.8268C53.7047 36.0886 40.3066 41.1756 26.8321 45.8458C25.6411 46.2541 24.9691 44.4166 26.1601 44.0083V43.9998Z" fill="#3D9487"/>
<path d="M54.4872 18.131C59.906 15.9363 65.3248 13.7416 70.7435 11.5469C71.0327 11.4278 71.4835 11.4788 71.7047 11.717C75.8475 16.1575 79.9902 20.6065 84.133 25.047C84.9837 25.9572 83.7417 27.4799 82.8825 26.5526C80.9345 24.46 78.9779 22.3674 77.0299 20.2747C75.3711 18.4968 72.7766 14.3201 70.5138 13.2823C71.8323 13.8862 70.2331 13.8777 69.0592 14.3456C67.2983 15.0601 65.5374 15.7747 63.7765 16.4808C60.9013 17.6462 58.0345 18.8031 55.1593 19.9685C53.9939 20.4449 53.3218 18.5989 54.4872 18.131Z" fill="#3D9487"/>
<defs>
<radialGradient id="paint0_radial_396_1555" cx="0" cy="0" r="1" gradientUnits="userSpaceOnUse" gradientTransform="translate(50.5697 95.5611) rotate(-2.26) scale(103.45 103.45)">
<stop stop-color="#3D9487"/>
<stop offset="1" stop-color="#75C9A5"/>
</radialGradient>
</defs>
</svg>
