<svg width="132" height="186" viewBox="0 0 132 186" fill="none" xmlns="http://www.w3.org/2000/svg">
<path d="M100.25 1.0514L47.2201 181.386C46.9186 181.329 46.6229 181.254 46.3331 181.162C34.9684 177.382 8.93917 120.061 16.9465 104.708C24.9538 89.356 34.2396 115.901 34.2396 115.901C34.2396 115.901 42.0732 44.4735 53.0269 39.9495C63.9806 35.4256 67.5437 53.1656 67.5437 53.1656C67.5437 53.1656 81.9705 -0.966265 100.259 1.0585L100.25 1.0514Z" fill="url(#paint0_linear_396_1743)"/>
<path d="M47.2116 181.387L100.241 1.05271C100.434 1.07444 100.628 1.10457 100.814 1.13601C119.363 4.39441 91.8278 108.451 91.8278 108.451C91.8278 108.451 104.073 97.3816 111.1 103.608C121.734 113.054 66.4566 184.968 47.2032 181.388L47.2116 181.387Z" fill="url(#paint1_linear_396_1743)"/>
<path d="M96.7615 15.2374C83.6311 58.5882 70.4184 101.909 56.8894 145.132C53.1551 157.066 49.4124 169.002 45.4788 180.872C45.1155 181.971 46.814 182.542 47.1844 181.434C63.601 131.969 78.3697 81.9249 93.5292 32.0696C95.1756 26.6489 96.8291 21.2185 98.4742 15.7894C98.8109 14.6869 97.104 14.1168 96.7672 15.2193L96.7615 15.2374Z" fill="#3D9487"/>
<path d="M25.8009 118.993C30.2491 136.113 37.2718 155.4 50.1288 167.961C50.9506 168.763 52.3078 167.58 51.4776 166.779C38.8738 154.462 31.9213 135.406 27.5602 118.625C27.2747 117.507 25.5154 117.875 25.8009 118.993Z" fill="#3D9487"/>
<path d="M99.5372 111.644C87.7666 123.716 73.9937 135.865 58.4537 142.677C57.3898 143.143 58.1985 144.748 59.254 144.283C74.9471 137.405 88.837 125.176 100.711 112.994C101.513 112.172 100.33 110.815 99.5288 111.645L99.5372 111.644Z" fill="#3D9487"/>
<path d="M58.1057 55.6982C58.7881 73.9026 59.6134 94.9688 67.5522 111.616C68.0497 112.658 69.6558 111.858 69.157 110.808C61.3726 94.4891 60.5592 73.6105 59.8935 55.7908C59.8531 54.6435 58.0543 54.5354 58.0973 55.6995L58.1057 55.6982Z" fill="#3D9487"/>
<defs>
<linearGradient id="paint0_linear_396_1743" x1="9.73771" y1="72.3814" x2="65.3396" y2="88.7314" gradientUnits="userSpaceOnUse">
<stop stop-color="#3D9487"/>
<stop offset="1" stop-color="#2B8778"/>
</linearGradient>
<linearGradient id="paint1_linear_396_1743" x1="57.3445" y1="86.3095" x2="90.5441" y2="96.0719" gradientUnits="userSpaceOnUse">
<stop stop-color="#3D9487"/>
<stop offset="1" stop-color="#2B8778"/>
</linearGradient>
</defs>
</svg>
