<svg width="141" height="76" viewBox="0 0 141 76" fill="none" xmlns="http://www.w3.org/2000/svg">
<path d="M0.689263 12.0842L140.139 49.9219C140.097 50.1516 140.045 50.3813 139.977 50.6024C137.255 59.3983 93.6246 80.3332 81.6982 74.4211C69.7719 68.509 90.0178 60.955 90.0178 60.955C90.0178 60.955 34.9967 56.0892 31.3473 47.7442C27.6979 39.3991 41.2746 36.3708 41.2746 36.3708C41.2746 36.3708 -0.561209 26.1543 0.697778 12.0757L0.689263 12.0842Z" fill="url(#paint0_linear_396_1759)"/>
<path d="M140.139 49.9219L0.689453 12.0842C0.706466 11.9396 0.723486 11.7865 0.749006 11.6419C2.95223 -2.66632 83.3658 16.8054 83.3658 16.8054C83.3658 16.8054 74.6549 7.5757 79.3336 2.07189C86.4196 -6.25614 142.581 35.0693 140.139 49.9219Z" fill="url(#paint1_linear_396_1759)"/>
<path d="M11.6459 14.5342C45.1706 23.9255 78.6869 33.3764 112.118 43.074C121.348 45.7536 130.586 48.4333 139.773 51.266C140.624 51.5297 141.032 50.2111 140.182 49.9474C101.902 38.1317 63.2048 27.5919 24.644 16.7459C20.4503 15.5635 16.2479 14.3896 12.0542 13.2071C11.2035 12.9689 10.7867 14.2875 11.6459 14.5257V14.5342Z" fill="#3D9487"/>
<path d="M92.5358 67.3861C105.619 63.6942 120.327 57.9862 129.778 47.8973C130.382 47.2508 129.455 46.23 128.842 46.8765C119.579 56.7612 105.049 62.4182 92.2211 66.0335C91.3704 66.2717 91.6767 67.6242 92.5358 67.3775V67.3861Z" fill="#3D9487"/>
<path d="M85.6879 10.8423C95.1558 19.6977 104.717 30.0844 110.204 41.9086C110.578 42.7168 111.795 42.0702 111.429 41.2621C105.891 29.3102 96.2617 18.8385 86.7172 9.90652C86.0707 9.30254 85.0499 10.2298 85.6964 10.8423H85.6879Z" fill="#3D9487"/>
<path d="M43.3672 43.5844C57.3436 42.7678 73.5233 41.7895 86.1897 35.418C86.9809 35.0182 86.3429 33.8018 85.5432 34.2016C73.1235 40.4455 57.0969 41.4067 43.4097 42.2063C42.5335 42.2574 42.474 43.6355 43.3672 43.5844Z" fill="#3D9487"/>
<defs>
<linearGradient id="paint0_linear_396_1759" x1="56.9869" y1="80.5" x2="68.6523" y2="37.505" gradientUnits="userSpaceOnUse">
<stop stop-color="#3D9487"/>
<stop offset="1" stop-color="#2B8778"/>
</linearGradient>
<linearGradient id="paint1_linear_396_1759" x1="66.9155" y1="43.6796" x2="73.8808" y2="18.0074" gradientUnits="userSpaceOnUse">
<stop stop-color="#3D9487"/>
<stop offset="1" stop-color="#2B8778"/>
</linearGradient>
</defs>
</svg>
