<svg width="150" height="120" viewBox="0 0 150 120" fill="none" xmlns="http://www.w3.org/2000/svg">
<path d="M209.385 8.13199L1.75392 103.985C-1.02776 88.9368 34.4621 28.548 49.9102 31.2021C65.2902 33.8476 51.9688 54.9102 50.9905 56.4328C52.7939 54.3232 92.7753 7.45146 104.923 10.8031C117.189 14.2143 103.179 32.9544 102.813 33.4223C103.698 32.7673 153.419 -4.27072 160.965 0.612104C168.587 5.55448 156.039 22.0319 156.039 22.0319C156.039 22.0319 202.367 -0.383175 209.385 8.12349V8.13199Z" fill="url(#paint0_linear_396_1767)"/>
<path d="M2.13669 105.312C1.96655 104.921 1.83043 104.478 1.74536 103.985L209.376 8.132C209.589 8.3957 209.759 8.66792 209.895 8.97416C214.642 19.6755 156.158 48.2494 156.158 48.2494C156.158 48.2494 177.085 40.5679 179.943 51.3033C182.657 61.5028 128.452 75.3176 123.127 76.6617C126.045 76.0662 143.16 72.9613 144.64 82.8546C146.24 93.675 76.1107 103.092 76.1107 103.092C76.1107 103.092 94.5531 103.943 93.1665 114.074C91.3971 127.021 6.92593 116.09 2.12817 105.321L2.13669 105.312Z" fill="url(#paint1_linear_396_1767)"/>
<path d="M196.506 12.2237C139.519 38.8751 82.5333 65.535 25.5471 92.1864C17.4658 95.9633 9.38444 99.7488 1.29459 103.526C-0.109005 104.181 0.894775 106.375 2.29838 105.72C59.2845 79.0606 116.271 52.4092 173.257 25.7578C181.338 21.9808 189.42 18.1954 197.501 14.4184C198.904 13.7634 197.901 11.5687 196.497 12.2237H196.506Z" fill="#3D9487"/>
<path d="M47.0434 40.0575C36.3675 59.1805 25.6916 78.295 15.0157 97.418C14.2672 98.762 16.2322 100.157 16.9893 98.8046C27.6652 79.6816 38.341 60.5671 49.0254 41.4441C49.774 40.1001 47.8089 38.705 47.0518 40.0575H47.0434Z" fill="#3D9487"/>
<path d="M86.3783 109.446C66.5492 103.687 46.7202 97.9369 26.8827 92.1779C25.4025 91.744 24.5518 94.0068 26.0405 94.4406C45.8695 100.2 65.6986 105.95 85.5361 111.709C87.0163 112.143 87.8669 109.88 86.3783 109.446Z" fill="#3D9487"/>
<path d="M97.3349 19.9307C82.5163 39.8789 67.6977 59.8185 52.8876 79.7666C51.9603 81.0086 53.9339 82.3952 54.8611 81.1532C69.6797 61.2051 84.4983 41.2655 99.3084 21.3173C100.236 20.0754 98.2621 18.6888 97.3349 19.9307Z" fill="#3D9487"/>
<path d="M135.275 79.1457C113.787 76.415 92.2988 73.6759 70.8025 70.9452C69.2628 70.7496 69.0246 73.1484 70.5643 73.3441C92.0521 76.0747 113.54 78.8054 135.036 81.5445C136.576 81.7402 136.814 79.3413 135.275 79.1457Z" fill="#3D9487"/>
<path d="M152.654 6.20098C135.759 22.9081 118.865 39.6152 101.971 56.3138C100.874 57.3941 102.413 59.2571 103.519 58.1597C120.413 41.4526 137.308 24.7455 154.202 8.04693C155.299 6.96658 153.759 5.10362 152.654 6.20098Z" fill="#3D9487"/>
<path d="M166.486 50.8355C151.284 49.8147 136.083 48.8024 120.881 47.7816C119.333 47.6795 119.095 50.0784 120.643 50.1804C135.845 51.2012 151.046 52.2135 166.247 53.2343C167.796 53.3364 168.034 50.9376 166.486 50.8355Z" fill="#3D9487"/>
<defs>
<linearGradient id="paint0_linear_396_1767" x1="82.389" y1="5.83787" x2="105.693" y2="56.318" gradientUnits="userSpaceOnUse">
<stop stop-color="#1B3D48"/>
<stop offset="1" stop-color="#2B8778"/>
</linearGradient>
<linearGradient id="paint1_linear_396_1767" x1="107.28" y1="59.8578" x2="126.248" y2="100.946" gradientUnits="userSpaceOnUse">
<stop stop-color="#1B3D48"/>
<stop offset="1" stop-color="#2B8778"/>
</linearGradient>
</defs>
</svg>
